<svg width="52" height="51" viewBox="0 0 52 51" fill="none" xmlns="http://www.w3.org/2000/svg">
<path d="M50.2668 22.9666L28.5334 1.23329C27.8667 0.566626 26.9334 0.166626 26.0001 0.166626C25.0667 0.166626 24.1334 0.566626 23.4667 1.23329L18.8001 5.89996L24.2668 11.3666C24.8001 11.1 25.3334 10.9666 26.0001 10.9666C28.2667 10.9666 30.0001 12.7 30.0001 14.9666C30.0001 15.6333 29.8668 16.1666 29.6001 16.7L34.9334 22.0333C35.4668 21.7666 36.0001 21.6333 36.6667 21.6333C38.9334 21.6333 40.6667 23.3666 40.6667 25.6333C40.6667 27.9 38.9334 29.6333 36.6667 29.6333C34.4001 29.6333 32.6667 27.9 32.6667 25.6333C32.6667 24.9666 32.8001 24.4333 33.0667 23.9L27.7334 18.5666C27.6001 18.5666 27.4667 18.7 27.3334 18.7V32.5666C28.9334 33.1 30.0001 34.5666 30.0001 36.3C30.0001 38.5666 28.2667 40.3 26.0001 40.3C23.7334 40.3 22.0001 38.5666 22.0001 36.3C22.0001 34.5666 23.0667 33.1 24.6667 32.5666V18.5666C23.0667 18.0333 22.0001 16.5666 22.0001 14.8333C22.0001 14.1666 22.1334 13.6333 22.4001 13.1L16.9334 7.63329L1.73342 22.9666C1.06675 23.6333 0.666748 24.5666 0.666748 25.5C0.666748 26.4333 1.06675 27.3666 1.73342 28.0333L23.4667 49.7666C24.1334 50.4333 25.0667 50.8333 26.0001 50.8333C26.9334 50.8333 27.8667 50.4333 28.5334 49.7666L50.2668 28.0333C50.9334 27.3666 51.3334 26.4333 51.3334 25.5C51.3334 24.5666 50.9334 23.6333 50.2668 22.9666Z" fill="#F4511E"/>
</svg>
